# xmcd
# Copyright (c) 1998 CDDB Inc.
#
# Track frame offsets:
#	150
#	24190
#	47070
#	67675
#	82045
#	101485
#	117392
#	133717
#	151160
#	173780
#	194525
#	214557
#
# Disc length: 3117 seconds
#
# Revision: 1
# Processed by: cddbd v1.5.1PL0 Copyright (c) Steve Scherf et al.
# Submitted via: audiograbber 1.70
#
DISCID=970c2b0c
DTITLE=Chileno desconhecido - Altura de Los Andes I
DYEAR=1900
DGENRE=
TTITLE0=TE AMO CADA VEZ MAIS
TTITLE1=EVIDENCIAS
TTITLE2=CADA VOLTA EH UM RECOMECO
TTITLE3=CHORA PEITO
TTITLE4=EU JURO
TTITLE5=PAGINA DE AMIGOS
TTITLE6=EH O AMOR
TTITLE7=SEU AMOR AINDA EH TUDO
TTITLE8=PRECISO SER AMADO
TTITLE9=ESTOU APAIXONADO
TTITLE10=SE EH AMOR NAO SEI
TTITLE11=DESCULPE MAS EU VOU CHORAR
EXTD=kiroiva@hotmail.com
EXTT0=
EXTT1=
EXTT2=
EXTT3=
EXTT4=
EXTT5=
EXTT6=
EXTT7=
EXTT8=
EXTT9=
EXTT10=
EXTT11=
PLAYORDER=
